<svg height="512pt" viewBox="-65 0 512 512" width="512pt" xmlns="http://www.w3.org/2000/svg"><path d="m351.0625 512h-320.125c-17.085938 0-30.9375-13.851562-30.9375-30.9375v-450.125c0-17.085938 13.851562-30.9375 30.9375-30.9375h320.125c17.085938 0 30.9375 13.851562 30.9375 30.9375v450.125c0 17.085938-13.851562 30.9375-30.9375 30.9375zm0 0" fill="#6d6670"/><path d="m351.027344 0h-30.972656c17.105468 0 30.972656 13.835938 30.972656 30.90625v450.1875c0 17.070312-13.867188 30.90625-30.972656 30.90625h30.972656c17.105468 0 30.972656-13.835938 30.972656-30.90625v-450.1875c0-17.070312-13.867188-30.90625-30.972656-30.90625zm0 0" fill="#5b545f"/><path d="m319.257812 257.03125h-260.183593c-2.277344 0-4.125-1.847656-4.125-4.125v-197.789062c0-2.277344 1.847656-4.125 4.125-4.125h260.183593c2.277344 0 4.125 1.847656 4.125 4.125v197.789062c0 2.277344-1.847656 4.125-4.125 4.125zm0 0" fill="#b5fcff"/><path d="m319.253906 50.992188h-30.976562c2.28125 0 4.132812 1.847656 4.132812 4.121093v197.796875c0 2.277344-1.851562 4.121094-4.132812 4.121094h30.976562c2.277344 0 4.128906-1.84375 4.128906-4.121094v-197.796875c0-2.273437-1.851562-4.121093-4.128906-4.121093zm0 0" fill="#71f6fc"/><path d="m207.585938 287.9375h-33.171876c-17.070312 0-30.90625-13.839844-30.90625-30.90625h94.984376c0 17.066406-13.835938 30.90625-30.90625 30.90625zm0 0" fill="#f54558"/><path d="m185.320312 383.742188c0 11.378906-9.242187 20.605468-20.648437 20.605468h-5.160156c-11.40625 0-20.648438 9.222656-20.648438 20.601563v5.152343c0 11.378907-9.246093 20.601563-20.648437 20.601563-11.40625 0-20.652344-9.222656-20.652344-20.601563v-5.152343c0-11.378907-9.242188-20.601563-20.648438-20.601563h-5.160156c-11.40625 0-20.648437-9.226562-20.648437-20.605468 0-11.378907 9.242187-20.605469 20.648437-20.605469h5.160156c11.40625 0 20.648438-9.222657 20.648438-20.601563v-5.152344c0-11.378906 9.246094-20.605468 20.652344-20.605468 11.402344 0 20.648437 9.226562 20.648437 20.605468v5.152344c0 11.378906 9.242188 20.601563 20.648438 20.601563h5.160156c11.40625.003906 20.648437 9.226562 20.648437 20.605469zm0 0" fill="#ffd659"/><path d="m330.894531 382.710938c0-31.292969-25.421875-56.660157-56.785156-56.660157-31.359375 0-56.78125 25.367188-56.78125 56.660157 0 31.292968 25.421875 56.660156 56.78125 56.660156 31.363281 0 56.785156-25.367188 56.785156-56.660156zm0 0" fill="#f54558"/><path d="m319.257812 43.492188h-260.183593c-6.410157 0-11.625 5.21875-11.625 11.625v197.789062c0 6.410156 5.214843 11.625 11.625 11.625h260.183593c6.40625 0 11.625-5.214844 11.625-11.625v-197.789062c0-6.40625-5.214843-11.625-11.625-11.625zm-3.375 206.039062h-253.433593v-191.039062h253.433593zm0 0" fill="#5b545f"/></svg>